<svg xmlns="http://www.w3.org/2000/svg" version="1.1" xmlns:xlink="http://www.w3.org/1999/xlink" xmlns:svgjs="http://svgjs.dev/svgjs" width="1500" height="332" viewBox="0 0 1500 332"><g transform="matrix(1,0,0,1,-4.867964582062541,-0.3249623814292022)"><svg viewBox="0 0 397 88" data-background-color="#dddd6b" preserveAspectRatio="xMidYMid meet" height="332" width="1500" xmlns="http://www.w3.org/2000/svg" xmlns:xlink="http://www.w3.org/1999/xlink"><g id="tight-bounds" transform="matrix(1,0,0,1,1.2883879593858865,0.086134607125814)"><svg viewBox="0 0 395.52 87.82773078574836" height="87.82773078574836" width="395.52"><g><svg viewBox="0 0 395.52 87.82773078574836" height="87.82773078574836" width="395.52"><g><svg viewBox="0 0 542.788837433709 120.52971249908255" height="87.82773078574836" width="395.52"><g transform="matrix(1,0,0,1,147.26883743370902,3.6324053976408948)"><svg viewBox="0 0 395.52 113.26490170380076" height="113.26490170380076" width="395.52"><g id="textblocktransform"><svg viewBox="0 0 395.52 113.26490170380076" height="113.26490170380076" width="395.52" id="textblock"><g><svg viewBox="0 0 395.52 113.26490170380076" height="113.26490170380076" width="395.52"><g transform="matrix(1,0,0,1,0,0)"><svg width="395.52" viewBox="1.75 -42.35 152.59 43.7" height="113.26490170380076" data-palette-color="#b2572b"><path d="M42.05-41.5Q43.6-41.2 44.38-40.45 45.15-39.7 45.15-38.7L45.15-38.7Q45.15-37.05 44.23-36.3 43.3-35.55 41.3-35.7L41.3-35.7Q36.8-36.05 34.27-36.18 31.75-36.3 27.65-36.35L27.65-36.35Q25.8-27.15 24.25-17.85L24.25-17.85Q23.7-14.45 23.1-9.98 22.5-5.5 22.3-2.75L22.3-2.75Q22.2-1.3 21.1-0.53 20 0.25 18.45 0.25L18.45 0.25Q16.8 0.25 15.9-0.55 15-1.35 15-2.65L15-2.65Q15-3.85 15.38-6.63 15.75-9.4 16.25-12.45L16.25-12.45Q16.8-15.5 17.1-17.75L17.1-17.75Q17.65-21.55 18.35-25.3 19.05-29.05 19.75-32.4L19.75-32.4Q19.9-33.15 20.1-34.13 20.3-35.1 20.55-36.3L20.55-36.3Q15.65-36.15 12.85-35.5 10.05-34.85 8.88-33.68 7.7-32.5 7.7-30.65L7.7-30.65Q7.7-28.95 8.7-27.4L8.7-27.4Q8.9-27.05 8.9-26.65L8.9-26.65Q8.9-25.7 7.78-24.88 6.65-24.05 5.45-24.05L5.45-24.05Q4.6-24.05 4.05-24.55L4.05-24.55Q3.05-25.4 2.4-26.98 1.75-28.55 1.75-30.55L1.75-30.55Q1.75-34.8 4.53-37.38 7.3-39.95 12.98-41.15 18.65-42.35 27.55-42.35L27.55-42.35Q33.05-42.35 36.33-42.15 39.6-41.95 42.05-41.5L42.05-41.5ZM55.05-11.15Q55.7-11.15 56.07-10.55 56.45-9.95 56.45-8.9L56.45-8.9Q56.45-6.9 55.5-5.8L55.5-5.8Q53.65-3.55 50.27-1.65 46.9 0.25 43.05 0.25L43.05 0.25Q37.8 0.25 34.9-2.6 32-5.45 32-10.4L32-10.4Q32-13.85 33.45-16.82 34.9-19.8 37.47-21.55 40.05-23.3 43.3-23.3L43.3-23.3Q46.2-23.3 47.95-21.58 49.7-19.85 49.7-16.9L49.7-16.9Q49.7-13.45 47.22-10.98 44.75-8.5 38.85-7.05L38.85-7.05Q40.1-4.75 43.6-4.75L43.6-4.75Q45.85-4.75 48.72-6.33 51.6-7.9 53.7-10.45L53.7-10.45Q54.3-11.15 55.05-11.15L55.05-11.15ZM42.45-18.4Q40.6-18.4 39.32-16.25 38.05-14.1 38.05-11.05L38.05-11.05 38.05-10.95Q41-11.65 42.7-13.05 44.4-14.45 44.4-16.3L44.4-16.3Q44.4-17.25 43.87-17.82 43.35-18.4 42.45-18.4L42.45-18.4ZM58.3 0.25Q55.2 0.25 53.35-2 51.5-4.25 51.5-7.9L51.5-7.9Q51.5-11.9 53.35-15.48 55.2-19.05 58.27-21.23 61.35-23.4 64.8-23.4L64.8-23.4Q65.9-23.4 66.27-22.98 66.65-22.55 66.9-21.45L66.9-21.45Q67.95-21.65 69.09-21.65L69.09-21.65Q71.55-21.65 71.55-19.9L71.55-19.9Q71.55-18.85 70.8-14.9L70.8-14.9Q69.65-9.15 69.65-6.9L69.65-6.9Q69.65-6.15 70.02-5.7 70.4-5.25 71-5.25L71-5.25Q71.95-5.25 73.3-6.48 74.65-7.7 76.95-10.45L76.95-10.45Q77.55-11.15 78.3-11.15L78.3-11.15Q78.95-11.15 79.32-10.55 79.7-9.95 79.7-8.9L79.7-8.9Q79.7-6.9 78.75-5.8L78.75-5.8Q76.7-3.25 74.4-1.5 72.09 0.25 69.95 0.25L69.95 0.25Q68.3 0.25 66.92-0.88 65.55-2 64.84-3.95L64.84-3.95Q62.25 0.25 58.3 0.25L58.3 0.25ZM60.1-4.8Q61.2-4.8 62.2-6.1 63.2-7.4 63.65-9.55L63.65-9.55 65.5-18.75Q63.4-18.7 61.62-17.18 59.85-15.65 58.8-13.15 57.75-10.65 57.75-7.85L57.75-7.85Q57.75-6.3 58.37-5.55 59-4.8 60.1-4.8L60.1-4.8ZM84.94 1.35Q82.34 1.35 80.97 0.15 79.59-1.05 79.59-2.55L79.59-2.55Q79.59-3.85 80.54-4.8 81.49-5.75 83.34-5.75L83.34-5.75Q83.99-5.75 84.87-5.63 85.74-5.5 86.19-5.45L86.19-5.45Q86.14-6.75 85.62-7.9 85.09-9.05 84.29-10.13 83.49-11.2 82.79-12L82.79-12Q81.24-9.05 79.72-7.1 78.19-5.15 76.39-3.4L76.39-3.4Q75.49-2.5 74.49-2.5L74.49-2.5Q73.69-2.5 73.19-3.08 72.69-3.65 72.69-4.5L72.69-4.5Q72.69-5.5 73.39-6.35L73.39-6.35 74.04-7.15Q76.79-10.55 78.19-12.75L78.19-12.75Q79.04-14.2 80.19-16.63 81.34-19.05 82.44-21.65L82.44-21.65Q83.39-23.85 86.39-23.85L86.39-23.85Q87.79-23.85 88.34-23.6 88.89-23.35 88.89-22.8L88.89-22.8Q88.89-22.5 88.69-21.85 88.49-21.2 88.14-20.55L88.14-20.55Q87.24-18.75 87.24-17.5L87.24-17.5Q87.24-16.75 87.77-15.85 88.29-14.95 89.39-13.6L89.39-13.6Q90.99-11.5 91.82-10.03 92.64-8.55 92.64-6.8L92.64-6.8Q92.64-6.3 92.54-5.4L92.54-5.4Q94.99-6.35 98.29-10.45L98.29-10.45Q98.89-11.15 99.64-11.15L99.64-11.15Q100.29-11.15 100.67-10.55 101.04-9.95 101.04-8.9L101.04-8.9Q101.04-7 100.09-5.8L100.09-5.8Q97.59-2.7 95.32-1.58 93.04-0.45 89.69-0.35L89.69-0.35Q87.69 1.35 84.94 1.35L84.94 1.35ZM103.54-26.6Q101.44-26.6 100.39-27.58 99.34-28.55 99.34-30.3L99.34-30.3Q99.34-32.05 100.72-33.23 102.09-34.4 104.14-34.4L104.14-34.4Q105.99-34.4 107.14-33.5 108.29-32.6 108.29-30.95L108.29-30.95Q108.29-28.95 106.99-27.78 105.69-26.6 103.54-26.6L103.54-26.6ZM103.14 0.25Q99.89 0.25 98.42-2.05 96.94-4.35 96.94-8.15L96.94-8.15Q96.94-10.4 97.52-13.93 98.09-17.45 98.99-20.5L98.99-20.5Q99.44-22.1 100.19-22.7 100.94-23.3 102.59-23.3L102.59-23.3Q105.14-23.3 105.14-21.6L105.14-21.6Q105.14-20.35 104.19-15.8L104.19-15.8Q102.99-10.3 102.99-8.35L102.99-8.35Q102.99-6.85 103.39-6.05 103.79-5.25 104.74-5.25L104.74-5.25Q105.64-5.25 106.99-6.5 108.34-7.75 110.59-10.45L110.59-10.45Q111.19-11.15 111.94-11.15L111.94-11.15Q112.59-11.15 112.97-10.55 113.34-9.95 113.34-8.9L113.34-8.9Q113.34-6.9 112.39-5.8L112.39-5.8Q107.44 0.25 103.14 0.25L103.14 0.25ZM131.59-11.15Q132.24-11.15 132.61-10.55 132.99-9.95 132.99-8.9L132.99-8.9Q132.99-6.9 132.04-5.8L132.04-5.8Q130.19-3.55 126.81-1.65 123.44 0.25 119.59 0.25L119.59 0.25Q114.34 0.25 111.44-2.6 108.54-5.45 108.54-10.4L108.54-10.4Q108.54-13.85 109.99-16.82 111.44-19.8 114.01-21.55 116.59-23.3 119.84-23.3L119.84-23.3Q122.74-23.3 124.49-21.58 126.24-19.85 126.24-16.9L126.24-16.9Q126.24-13.45 123.76-10.98 121.29-8.5 115.39-7.05L115.39-7.05Q116.64-4.75 120.14-4.75L120.14-4.75Q122.39-4.75 125.26-6.33 128.14-7.9 130.24-10.45L130.24-10.45Q130.84-11.15 131.59-11.15L131.59-11.15ZM118.99-18.4Q117.14-18.4 115.86-16.25 114.59-14.1 114.59-11.05L114.59-11.05 114.59-10.95Q117.54-11.65 119.24-13.05 120.94-14.45 120.94-16.3L120.94-16.3Q120.94-17.25 120.41-17.82 119.89-18.4 118.99-18.4L118.99-18.4ZM138.24 1.35Q135.64 1.35 134.26 0.15 132.89-1.05 132.89-2.55L132.89-2.55Q132.89-3.85 133.84-4.8 134.79-5.75 136.64-5.75L136.64-5.75Q137.29-5.75 138.16-5.63 139.04-5.5 139.49-5.45L139.49-5.45Q139.44-6.75 138.91-7.9 138.39-9.05 137.59-10.13 136.79-11.2 136.09-12L136.09-12Q134.54-9.05 133.01-7.1 131.49-5.15 129.69-3.4L129.69-3.4Q128.79-2.5 127.79-2.5L127.79-2.5Q126.99-2.5 126.49-3.08 125.99-3.65 125.99-4.5L125.99-4.5Q125.99-5.5 126.69-6.35L126.69-6.35 127.34-7.15Q130.09-10.55 131.49-12.75L131.49-12.75Q132.34-14.2 133.49-16.63 134.64-19.05 135.74-21.65L135.74-21.65Q136.69-23.85 139.69-23.85L139.69-23.85Q141.09-23.85 141.64-23.6 142.19-23.35 142.19-22.8L142.19-22.8Q142.19-22.5 141.99-21.85 141.79-21.2 141.44-20.55L141.44-20.55Q140.54-18.75 140.54-17.5L140.54-17.5Q140.54-16.75 141.06-15.85 141.59-14.95 142.69-13.6L142.69-13.6Q144.29-11.5 145.11-10.03 145.94-8.55 145.94-6.8L145.94-6.8Q145.94-6.3 145.84-5.4L145.84-5.4Q148.29-6.35 151.59-10.45L151.59-10.45Q152.19-11.15 152.94-11.15L152.94-11.15Q153.59-11.15 153.96-10.55 154.34-9.95 154.34-8.9L154.34-8.9Q154.34-7 153.39-5.8L153.39-5.8Q150.89-2.7 148.61-1.58 146.34-0.45 142.99-0.35L142.99-0.35Q140.99 1.35 138.24 1.35L138.24 1.35Z" opacity="1" transform="matrix(1,0,0,1,0,0)" fill="#b2572b" class="wordmark-text-0" data-fill-palette-color="primary" id="text-0"></path></svg></g></svg></g></svg></g></svg></g><g><svg viewBox="0 0 120.52971249908255 120.52971249908255" height="120.52971249908255" width="120.52971249908255"><g><svg xmlns="http://www.w3.org/2000/svg" xmlns:xlink="http://www.w3.org/1999/xlink" version="1.1" x="0" y="0" viewBox="0 0 100 100" enable-background="new 0 0 100 100" xml:space="preserve" height="120.52971249908255" width="120.52971249908255" class="icon-icon-0" data-fill-palette-color="accent" id="icon-0"><path fill="#b2572b" d="M40 80C62.056 80 80 62.056 80 40 80 36.501 79.545 33.106 78.697 29.869L74.083 40.251 67.309 47.065 68.558 48.375 61.005 53.505 58.934 51.333 64.414 44.031 66 45.694 72.167 39.417 77.778 26.879C72.334 11.25 57.461 0 40 0 17.944 0 0 17.944 0 40S17.944 80 40 80M40 23C49.374 23 57 30.626 57 40S49.374 57 40 57 23 49.374 23 40 30.626 23 40 23" data-fill-palette-color="accent"></path><path fill="#b2572b" d="M40 52C46.628 52 52 46.628 52 40S46.628 28 40 28 28 33.372 28 40 33.372 52 40 52M40 38A2 2 0 1 1 39.999 42.001 2 2 0 0 1 40 38" data-fill-palette-color="accent"></path><path fill="#b2572b" d="M27.18 0H6C2 0 0 2 0 6V27.18C4.126 14.298 14.298 4.126 27.18 0" data-fill-palette-color="accent"></path><path fill="#b2572b" d="M87 79C82.589 79 79 82.589 79 87S82.589 95 87 95 95 91.411 95 87 91.411 79 87 79" data-fill-palette-color="accent"></path><path fill="#b2572b" d="M94 0H52.829C64.719 3.812 74.299 12.78 78.944 24.273L81.857 17.766A5.71 5.71 0 0 1 79.286 12.999C79.286 9.849 81.849 7.285 85 7.285S90.714 9.85 90.714 13 88.15 18.714 85 18.714C84.56 18.714 84.133 18.659 83.721 18.565L79.953 27.043A42 42 0 0 1 82 40C82 63.196 63.196 82 40 82 21.275 82 5.42 69.745 0 52.82V94C0 98 2 100 6 100H94C98 100 100 98 100 94V6C100 2 98 0 94 0M8 97A4 4 0 1 1 8 89 4 4 0 0 1 8 97M20 97A4 4 0 1 1 20 89 4 4 0 0 1 20 97M32 97A4 4 0 1 1 32 89 4 4 0 0 1 32 97M87 97C81.486 97 77 92.514 77 87S81.486 77 87 77 97 81.486 97 87 92.514 97 87 97" data-fill-palette-color="accent"></path></svg></g></svg></g></svg></g></svg></g><defs></defs></svg><rect width="395.52" height="87.82773078574836" fill="none" stroke="none" visibility="hidden"></rect></g></svg></g></svg>