<svg xmlns="http://www.w3.org/2000/svg" version="1.1" xmlns:xlink="http://www.w3.org/1999/xlink" xmlns:svgjs="http://svgjs.dev/svgjs" width="1500" height="1500" viewBox="0 0 1500 1500"><rect width="1500" height="1500" fill="#ffffff"></rect><g transform="matrix(0.6666666666666666,0,0,0.6666666666666666,250,187.66666666666674)"><svg viewBox="0 0 320 360" data-background-color="#dddd6b" preserveAspectRatio="xMidYMid meet" height="1687" width="1500" xmlns="http://www.w3.org/2000/svg" xmlns:xlink="http://www.w3.org/1999/xlink"><g id="tight-bounds" transform="matrix(1,0,0,1,0,0)"><svg viewBox="0 0 320 360" height="360" width="320"><g><svg></svg></g><g><svg viewBox="0 0 320 360" height="360" width="320"><g><path d="M320 187.111c0-45.764-20.238-86.866-52.203-114.908-28.043-31.964-69.145-52.203-114.908-52.203-84.302 0-152.889 68.587-152.889 152.889 0 45.753 20.231 86.848 52.185 114.891 28.043 31.975 69.152 52.22 114.926 52.22 0.299 0 0.59-0.021 0.889-0.021 0.299 0 0.59 0.021 0.889 0.021 83.456 0 151.111-67.655 151.111-151.111 0-0.299-0.021-0.59-0.021-0.889 0-0.299 0.021-0.59 0.021-0.889zM59.833 263.097c-15.093-21.255-24.071-47.143-24.256-75.097 0.48-72.928 59.492-131.943 132.423-132.423 27.954 0.185 53.845 9.163 75.097 24.256 24.366 23.627 39.57 56.64 39.57 93.056 0 71.559-58.219 129.778-129.778 129.778-36.416 0-69.429-15.204-93.056-39.57zM3.556 172.889c0-82.343 66.99-149.333 149.333-149.333 35.051 0 67.292 12.167 92.8 32.462-22.98-13.824-49.863-21.796-78.578-21.796-84.302 0-152.889 68.587-152.889 152.889 0 28.708 7.968 55.584 21.785 78.56-20.288-25.5-32.452-57.739-32.451-92.782zM167.111 318.667c-35.84 0-68.363-14.418-92.107-37.743 21.952 15.89 48.864 25.298 77.885 25.298 73.522 0 133.333-59.812 133.333-133.333 0-29.02-9.408-55.932-25.298-77.885 23.324 23.744 37.742 56.267 37.743 92.107 0 72.54-59.015 131.556-131.556 131.556z" fill="#000000" fill-rule="nonzero" stroke="none" stroke-width="1" stroke-linecap="butt" stroke-linejoin="miter" stroke-miterlimit="10" stroke-dasharray="" stroke-dashoffset="0" font-family="none" font-weight="none" font-size="none" text-anchor="none" style="mix-blend-mode: normal" data-fill-palette-color="tertiary"></path></g><g transform="matrix(1,0,0,1,112.88579881656804,99)"><svg viewBox="0 0 94.2284023668639 162" height="162" width="94.2284023668639"><g><svg viewBox="0 0 94.2284023668639 162" height="162" width="94.2284023668639"><g><svg viewBox="0 0 94.2284023668639 162" height="162" width="94.2284023668639"><g id="textblocktransform"><svg viewBox="0 0 94.2284023668639 162" height="162" width="94.2284023668639" id="textblock"><g><svg viewBox="0 0 94.2284023668639 162" height="162" width="94.2284023668639"><g transform="matrix(1,0,0,1,0,0)"><svg width="94.2284023668639" viewBox="-2.88 -39.65 24 41.26" height="162" data-palette-color="#b2572b"><path d="M6.13-5.1L6.13-5.1 6.13-31.59 7.67-33.11 4.52-33.11Q1.49-33.11 1.07-31.45L1.07-31.45-0.02-31.45-2.88-35.55Q-2.27-36.5-1.33-37.24-0.39-37.99 0.51-37.99L0.51-37.99 13.72-37.99Q16.75-37.99 17.16-39.65L17.16-39.65 18.26-39.65 21.12-35.55Q20.51-34.59 19.57-33.85 18.63-33.11 17.72-33.11L17.72-33.11 12.11-33.11 12.11-7.69Q12.11-5.86 12.51-5.05 12.92-4.25 14.16-4.25L14.16-4.25 14.16-2.71 3.93 1.61 3.13 0Q4.22 0 5.22-1.29L5.22-1.29Q6.13-2.51 6.13-5.1Z" opacity="1" transform="matrix(1,0,0,1,0,0)" fill="#000000" class="wordmark-text-0" data-fill-palette-color="primary" id="text-0"></path></svg></g></svg></g></svg></g></svg></g><g></g></svg></g></svg></g></svg></g><defs></defs></svg><rect width="320" height="360" fill="none" stroke="none" visibility="hidden"></rect></g></svg></g></svg>